<svg width="200" height="200" viewBox="0 0 200 200" fill="none" xmlns="http://www.w3.org/2000/svg">
<path d="M103.206 3.49612L102.246 12.1704L101.196 12.0542L102.156 3.37986L103.206 3.49612Z" fill="black"/>
<path d="M112.573 9.06741L111.712 12.9096L110.73 12.6897L112.162 6.30265L113.11 6.51512L112.886 7.51309L112.969 7.53173C113.192 7.24094 113.477 7.0313 113.826 6.90281C114.176 6.77156 114.592 6.75998 115.075 6.86807C115.507 6.96499 115.865 7.1385 116.15 7.3886C116.435 7.63594 116.628 7.9586 116.728 8.35658C116.829 8.7518 116.818 9.22108 116.696 9.76442L115.787 13.8228L114.805 13.6029L115.7 9.61103C115.813 9.10927 115.77 8.6892 115.572 8.35081C115.375 8.00966 115.049 7.78814 114.594 7.68625C114.281 7.61605 113.986 7.62122 113.709 7.70176C113.434 7.78293 113.197 7.93796 112.997 8.16686C112.798 8.39576 112.656 8.69594 112.573 9.06741Z" fill="black"/>
<path d="M125.088 9.1335L124.811 9.9396L121.603 8.8382L121.88 8.03211L125.088 9.1335ZM123.324 6.8699L124.275 7.19645L122.249 13.0971C122.157 13.3658 122.127 13.5807 122.159 13.7418C122.194 13.9011 122.266 14.0248 122.374 14.1129C122.485 14.1993 122.611 14.2664 122.751 14.3144C122.855 14.3504 122.943 14.3745 123.014 14.3868C123.086 14.3965 123.143 14.4042 123.186 14.4099L123.086 15.3308C123.014 15.3329 122.915 15.3261 122.791 15.3106C122.667 15.2979 122.516 15.261 122.338 15.2001C122.07 15.1079 121.826 14.9597 121.608 14.7556C121.392 14.5525 121.24 14.3036 121.152 14.009C121.067 13.7154 121.086 13.3885 121.21 13.0285L123.324 6.8699Z" fill="black"/>
<path d="M131.987 18.444C131.417 18.1748 130.984 17.8167 130.69 17.3698C130.399 16.9214 130.249 16.4171 130.24 15.8569C130.235 15.2953 130.375 14.7114 130.661 14.105C130.947 13.4987 131.31 13.0164 131.749 12.6583C132.192 12.2987 132.674 12.0832 133.195 12.0116C133.719 11.9387 134.249 12.0283 134.783 12.2805C135.091 12.426 135.371 12.621 135.624 12.8657C135.876 13.1103 136.07 13.4064 136.208 13.754C136.347 14.0991 136.4 14.495 136.368 14.9418C136.337 15.3886 136.19 15.8881 135.93 16.4405L135.748 16.8259L131.185 14.6726L131.556 13.8864L135.194 15.6033C135.352 15.2693 135.425 14.9397 135.416 14.6146C135.408 14.2907 135.318 13.9954 135.146 13.7286C134.976 13.4631 134.726 13.2527 134.397 13.0975C134.035 12.9266 133.679 12.8686 133.33 12.9235C132.984 12.9771 132.673 13.1132 132.397 13.3317C132.121 13.5502 131.907 13.8226 131.753 14.1489L131.505 14.673C131.294 15.12 131.193 15.5353 131.2 15.919C131.211 16.3012 131.317 16.6388 131.518 16.9316C131.721 17.2218 132.006 17.4536 132.373 17.627C132.612 17.7397 132.844 17.8082 133.068 17.8323C133.296 17.8551 133.512 17.8317 133.718 17.7622C133.925 17.6902 134.115 17.5696 134.289 17.4004L135.052 18.0617C134.818 18.3161 134.539 18.5048 134.214 18.6278C133.89 18.7483 133.538 18.7957 133.158 18.77C132.778 18.7418 132.388 18.6331 131.987 18.444Z" fill="black"/>
<path d="M138.499 20.9045L141.926 15.3283L142.754 15.8371L142.236 16.6794L142.294 16.7151C142.566 16.5017 142.887 16.3909 143.259 16.3827C143.631 16.3745 143.984 16.473 144.318 16.6783C144.381 16.717 144.459 16.7666 144.552 16.827C144.644 16.8875 144.714 16.935 144.759 16.9696L144.223 17.8409C144.199 17.8157 144.139 17.7639 144.044 17.6854C143.953 17.606 143.85 17.5313 143.736 17.4614C143.465 17.2948 143.188 17.2029 142.905 17.1857C142.626 17.1676 142.364 17.2199 142.119 17.3425C141.877 17.4641 141.679 17.6508 141.524 17.9025L139.355 21.4312L138.499 20.9045Z" fill="black"/>
<path d="M149.048 27.413C148.55 27.0256 148.206 26.5816 148.017 26.0809C147.831 25.5798 147.795 25.0549 147.908 24.5063C148.026 23.9572 148.291 23.4181 148.703 22.889C149.115 22.3599 149.574 21.9687 150.081 21.7152C150.592 21.4612 151.109 21.3562 151.633 21.4003C152.16 21.4438 152.657 21.6471 153.124 22.01C153.393 22.2194 153.623 22.471 153.816 22.7648C154.008 23.0587 154.134 23.3902 154.192 23.7595C154.252 24.1265 154.218 24.5246 154.089 24.9536C153.96 25.3826 153.708 25.8381 153.333 26.3201L153.071 26.6564L149.09 23.5574L149.624 22.8714L152.798 25.3422C153.025 25.0508 153.169 24.7453 153.231 24.4259C153.294 24.1083 153.271 23.8004 153.161 23.5024C153.053 23.2061 152.856 22.9463 152.569 22.7229C152.253 22.4769 151.918 22.3425 151.565 22.3197C151.216 22.2964 150.883 22.3612 150.566 22.514C150.249 22.6669 149.98 22.8857 149.758 23.1704L149.402 23.6278C149.099 24.0179 148.908 24.4009 148.832 24.7769C148.759 25.1523 148.789 25.5049 148.921 25.8346C149.055 26.162 149.282 26.4505 149.603 26.7C149.811 26.8623 150.022 26.9798 150.236 27.0523C150.453 27.1244 150.67 27.149 150.886 27.1262C151.103 27.1011 151.316 27.025 151.522 26.898L152.122 27.71C151.838 27.9073 151.525 28.0304 151.181 28.0793C150.838 28.1261 150.484 28.0953 150.119 27.987C149.755 27.8765 149.398 27.6852 149.048 27.413Z" fill="black"/>
<path d="M161.729 30.8299L160.903 30.3832C160.967 30.2357 161.009 30.0723 161.029 29.8933C161.052 29.7141 161.03 29.5256 160.961 29.3277C160.892 29.1297 160.752 28.9287 160.543 28.7247C160.255 28.4454 159.952 28.2788 159.632 28.2249C159.315 28.171 159.059 28.2449 158.863 28.4465C158.689 28.6257 158.616 28.8306 158.646 29.0612C158.675 29.2919 158.794 29.5765 159.004 29.9151L159.534 30.7637C159.854 31.2736 160.015 31.7334 160.017 32.1432C160.021 32.551 159.863 32.9188 159.544 33.2467C159.283 33.5155 158.971 33.6805 158.611 33.7417C158.252 33.8049 157.876 33.7639 157.482 33.6186C157.088 33.4734 156.709 33.2235 156.345 32.8689C155.866 32.4034 155.571 31.9142 155.459 31.4014C155.348 30.8887 155.444 30.3921 155.749 29.9118L156.6 30.4063C156.419 30.7222 156.358 31.0314 156.417 31.334C156.477 31.6385 156.655 31.9344 156.95 32.2217C157.286 32.5485 157.622 32.7368 157.959 32.7864C158.299 32.8359 158.567 32.7599 158.763 32.5583C158.922 32.3954 158.997 32.2035 158.99 31.9826C158.985 31.7597 158.891 31.5058 158.709 31.2211L158.105 30.2771C157.774 29.7573 157.612 29.2924 157.619 28.8825C157.629 28.4725 157.792 28.1057 158.107 27.7819C158.364 27.5172 158.666 27.3553 159.013 27.2963C159.362 27.2392 159.722 27.2785 160.094 27.414C160.467 27.5515 160.819 27.7807 161.149 28.1016C161.613 28.5532 161.878 29.0096 161.945 29.4708C162.014 29.9339 161.942 30.387 161.729 30.8299Z" fill="black"/>
<path d="M168.957 35.7269L168.299 36.2687L166.143 33.6503L166.801 33.1085L168.957 35.7269ZM168.64 32.8747L169.279 33.651L164.463 37.6171C164.244 37.7977 164.106 37.9649 164.048 38.1188C163.995 38.2731 163.991 38.416 164.037 38.5476C164.087 38.6796 164.159 38.8026 164.253 38.9166C164.323 39.0021 164.385 39.0687 164.439 39.1163C164.495 39.1621 164.54 39.1987 164.574 39.2262L164.007 39.9584C163.944 39.922 163.863 39.8648 163.766 39.7868C163.666 39.7105 163.557 39.6001 163.438 39.4553C163.257 39.236 163.127 38.9823 163.048 38.6941C162.971 38.4081 162.972 38.1166 163.051 37.8195C163.132 37.5246 163.32 37.2561 163.613 37.0141L168.64 32.8747Z" fill="black"/>
<path d="M169.959 47.2718C169.614 46.7438 169.433 46.2122 169.416 45.6771C169.403 45.1427 169.539 44.6345 169.825 44.1526C170.115 43.6715 170.54 43.2476 171.102 42.8809C171.663 42.5142 172.225 42.2932 172.786 42.2181C173.352 42.1438 173.875 42.2124 174.356 42.4241C174.841 42.6367 175.245 42.9903 175.569 43.485C175.755 43.7704 175.892 44.0833 175.978 44.4237C176.065 44.7641 176.076 45.1184 176.011 45.4866C175.948 45.8532 175.787 46.2185 175.526 46.5824C175.265 46.9464 174.878 47.2954 174.367 47.6295L174.01 47.8626L171.251 43.6387L171.978 43.1632L174.179 46.5309C174.488 46.3289 174.723 46.0868 174.885 45.8047C175.049 45.5249 175.127 45.2262 175.119 44.9086C175.114 44.5933 175.011 44.2835 174.812 43.9791C174.593 43.6437 174.32 43.408 173.994 43.2718C173.671 43.1364 173.335 43.0896 172.986 43.1312C172.636 43.1729 172.311 43.2924 172.009 43.4897L171.523 43.8067C171.11 44.0771 170.805 44.3776 170.611 44.7083C170.42 45.0399 170.334 45.383 170.352 45.7378C170.372 46.0909 170.494 46.4376 170.716 46.7777C170.86 46.9989 171.022 47.1785 171.2 47.3164C171.382 47.4552 171.579 47.5489 171.791 47.5973C172.005 47.6442 172.23 47.6412 172.467 47.5882L172.77 48.5508C172.438 48.6454 172.102 48.66 171.76 48.5946C171.421 48.5276 171.096 48.3835 170.786 48.1624C170.477 47.9397 170.202 47.6428 169.959 47.2718Z" fill="black"/>
<path d="M175.212 55.0446C174.966 54.5579 174.871 54.066 174.929 53.569C174.989 53.0707 175.191 52.6021 175.536 52.1634C175.883 51.7234 176.366 51.3469 176.984 51.0339C177.598 50.7235 178.183 50.5593 178.741 50.5414C179.299 50.5234 179.795 50.6398 180.231 50.8905C180.667 51.1413 181.009 51.5125 181.258 52.0043C181.45 52.3845 181.539 52.7169 181.524 53.0016C181.512 53.2875 181.456 53.5292 181.356 53.7266C181.259 53.9253 181.176 54.0832 181.108 54.2004L181.147 54.2765L184.021 52.8218L184.475 53.7191L176.688 57.6598L176.25 56.7929L177.147 56.3388L177.093 56.2323C176.953 56.2203 176.772 56.1945 176.548 56.1549C176.327 56.1141 176.095 56.0129 175.855 55.8514C175.616 55.6887 175.402 55.4197 175.212 55.0446ZM176.08 54.7583C176.262 55.1183 176.51 55.375 176.823 55.5285C177.139 55.6807 177.497 55.7368 177.897 55.6967C178.299 55.6554 178.721 55.5231 179.162 55.2999C179.598 55.0793 179.948 54.8229 180.21 54.5306C180.476 54.2371 180.637 53.92 180.694 53.5792C180.753 53.2372 180.69 52.8837 180.506 52.5186C180.313 52.1384 180.055 51.871 179.732 51.7162C179.412 51.5628 179.054 51.5067 178.658 51.548C178.266 51.5906 177.864 51.7157 177.454 51.9236C177.038 52.1339 176.692 52.3884 176.417 52.6871C176.145 52.9869 175.972 53.313 175.899 53.6653C175.83 54.0189 175.89 54.3832 176.08 54.7583Z" fill="black"/>
<path d="M182.748 70.1507L189.093 68.5439L189.34 69.5188L182.995 71.1256L182.748 70.1507ZM190.276 68.7718C190.228 68.5818 190.251 68.4016 190.346 68.2311C190.441 68.0634 190.58 67.9565 190.762 67.9105C190.943 67.8644 191.116 67.8925 191.28 67.9947C191.444 68.0996 191.55 68.2471 191.598 68.4371C191.646 68.6271 191.623 68.806 191.528 68.9737C191.433 69.1442 191.295 69.2524 191.113 69.2985C190.931 69.3445 190.758 69.315 190.594 69.2101C190.43 69.108 190.324 68.9619 190.276 68.7718Z" fill="black"/>
<path d="M189.568 79.8902L185.668 80.431L185.53 79.4349L192.013 78.5358L192.146 79.4982L191.133 79.6387L191.145 79.7231C191.495 79.8294 191.792 80.0235 192.035 80.3053C192.28 80.5867 192.437 80.9723 192.505 81.4619C192.566 81.9009 192.529 82.2975 192.394 82.6517C192.263 83.0055 192.028 83.299 191.691 83.5323C191.356 83.7651 190.913 83.9198 190.361 83.9963L186.241 84.5676L186.103 83.5714L190.155 83.0095C190.665 82.9389 191.043 82.7516 191.291 82.4477C191.541 82.1434 191.634 81.7605 191.57 81.299C191.526 80.981 191.418 80.7063 191.245 80.475C191.073 80.2465 190.845 80.0788 190.56 79.972C190.276 79.8652 189.945 79.8379 189.568 79.8902Z" fill="black"/>
<path d="M185.142 102.884L188.59 103.17L188.597 103.085C188.484 103.002 188.343 102.884 188.173 102.734C188.006 102.583 187.862 102.376 187.741 102.112C187.623 101.848 187.582 101.507 187.617 101.088C187.662 100.545 187.839 100.076 188.148 99.6827C188.46 99.2895 188.878 98.9963 189.401 98.803C189.927 98.61 190.536 98.5422 191.227 98.5994C191.912 98.6562 192.497 98.8229 192.981 99.0997C193.465 99.3764 193.828 99.7357 194.068 100.177C194.307 100.619 194.405 101.115 194.359 101.664C194.324 102.089 194.225 102.418 194.063 102.653C193.904 102.891 193.73 103.067 193.541 103.183C193.354 103.301 193.201 103.392 193.082 103.457L193.072 103.576L194.108 103.661L194.028 104.63L185.059 103.887L185.142 102.884ZM188.506 101.299C188.472 101.701 188.549 102.049 188.736 102.344C188.925 102.639 189.2 102.874 189.562 103.05C189.927 103.225 190.355 103.333 190.848 103.374C191.335 103.415 191.767 103.379 192.144 103.268C192.524 103.157 192.827 102.971 193.054 102.71C193.283 102.45 193.415 102.116 193.449 101.708C193.484 101.284 193.405 100.921 193.21 100.62C193.018 100.321 192.742 100.086 192.383 99.9139C192.027 99.7447 191.619 99.6411 191.16 99.6031C190.696 99.5646 190.268 99.6004 189.877 99.7105C189.489 99.8237 189.171 100.011 188.924 100.273C188.68 100.538 188.54 100.88 188.506 101.299Z" fill="black"/>
<path d="M189.409 112.882L193.206 113.624L193.013 114.611L186.589 113.356L186.782 112.369L187.869 112.581L187.882 112.515C187.586 112.3 187.354 112.012 187.187 111.649C187.024 111.287 186.989 110.864 187.084 110.379C187.162 109.977 187.32 109.637 187.557 109.359C187.796 109.082 188.112 108.889 188.503 108.78C188.898 108.672 189.368 108.671 189.915 108.778L193.997 109.575L193.804 110.562L189.789 109.778C189.321 109.687 188.921 109.745 188.591 109.952C188.261 110.163 188.056 110.473 187.975 110.883C187.928 111.128 187.942 111.39 188.017 111.668C188.093 111.949 188.243 112.201 188.469 112.425C188.694 112.651 189.007 112.804 189.409 112.882Z" fill="black"/>
<path d="M185.405 119.696C185.528 119.3 185.715 118.965 185.965 118.689C186.218 118.413 186.517 118.225 186.861 118.125C187.207 118.025 187.584 118.038 187.991 118.166C188.349 118.278 188.617 118.439 188.795 118.649C188.976 118.861 189.093 119.104 189.147 119.38C189.201 119.656 189.214 119.946 189.187 120.25C189.163 120.558 189.124 120.863 189.071 121.165C189.001 121.559 188.941 121.879 188.892 122.122C188.845 122.369 188.835 122.557 188.863 122.685C188.891 122.815 188.982 122.905 189.137 122.953L189.169 122.963C189.57 123.089 189.917 123.077 190.208 122.927C190.498 122.779 190.712 122.484 190.85 122.043C190.994 121.584 191.006 121.194 190.886 120.871C190.767 120.548 190.61 120.298 190.416 120.121L191.026 119.311C191.355 119.593 191.582 119.902 191.709 120.239C191.837 120.58 191.893 120.925 191.876 121.274C191.861 121.627 191.805 121.96 191.706 122.275C191.644 122.475 191.547 122.698 191.417 122.943C191.289 123.192 191.113 123.415 190.89 123.613C190.667 123.814 190.382 123.95 190.035 124.02C189.689 124.09 189.268 124.048 188.771 123.893L184.655 122.605L184.956 121.645L185.802 121.91L185.817 121.861C185.702 121.754 185.591 121.6 185.483 121.4C185.376 121.2 185.308 120.956 185.279 120.67C185.249 120.384 185.291 120.06 185.405 119.696ZM186.221 120.112C186.102 120.492 186.077 120.835 186.145 121.142C186.211 121.452 186.342 121.71 186.536 121.917C186.73 122.126 186.957 122.271 187.217 122.353L188.095 122.628C188.059 122.572 188.043 122.468 188.045 122.317C188.05 122.17 188.065 122.002 188.091 121.814C188.119 121.629 188.149 121.449 188.179 121.274C188.212 121.103 188.238 120.964 188.257 120.856C188.302 120.597 188.322 120.347 188.317 120.107C188.313 119.871 188.26 119.664 188.158 119.486C188.058 119.312 187.886 119.186 187.642 119.11C187.308 119.006 187.018 119.05 186.77 119.244C186.523 119.441 186.341 119.73 186.221 120.112Z" fill="black"/>
<path d="M191.222 131.696L183.23 128.191L183.634 127.27L191.626 130.775L191.222 131.696Z" fill="black"/>
<path d="M180.126 136.305L185.795 139.577L185.292 140.448L179.623 137.176L180.126 136.305ZM186.484 140.566C186.582 140.396 186.724 140.283 186.911 140.227C187.096 140.173 187.27 140.193 187.432 140.287C187.595 140.38 187.699 140.521 187.745 140.708C187.789 140.898 187.763 141.078 187.665 141.247C187.567 141.417 187.425 141.529 187.24 141.583C187.053 141.639 186.879 141.62 186.716 141.527C186.554 141.433 186.45 141.291 186.406 141.101C186.36 140.914 186.386 140.735 186.484 140.566Z" fill="black"/>
<path d="M179.234 151.069L178.548 150.564L180.557 147.831L181.243 148.336L179.234 151.069ZM181.921 150.061L181.326 150.871L176.299 147.177C176.07 147.008 175.874 146.915 175.711 146.898C175.548 146.884 175.408 146.915 175.292 146.992C175.176 147.073 175.075 147.173 174.987 147.292C174.922 147.381 174.873 147.458 174.84 147.521C174.809 147.587 174.785 147.64 174.766 147.679L173.917 147.309C173.937 147.239 173.973 147.147 174.024 147.033C174.074 146.918 174.154 146.785 174.265 146.634C174.433 146.405 174.647 146.217 174.907 146.069C175.166 145.924 175.449 145.854 175.756 145.857C176.062 145.864 176.368 145.979 176.675 146.205L181.921 150.061Z" fill="black"/>
<path d="M168.003 151.762C168.119 151.637 168.232 151.534 168.343 151.455C168.453 151.375 168.534 151.324 168.587 151.304L169.066 152.092C168.855 152.229 168.692 152.373 168.577 152.522C168.463 152.672 168.412 152.851 168.425 153.06C168.433 153.268 168.519 153.53 168.68 153.845L168.93 154.329L175.41 157.005L174.671 157.807L169.61 155.604L169.564 155.654L172.177 160.516L171.438 161.319L167.802 154.195C167.638 153.874 167.537 153.571 167.499 153.285C167.459 152.997 167.482 152.727 167.568 152.474C167.652 152.223 167.797 151.986 168.003 151.762Z" fill="black"/>
<path d="M154.86 168.325C155.308 168.014 155.782 167.853 156.283 167.841C156.784 167.832 157.276 167.968 157.758 168.249C158.242 168.533 158.681 168.959 159.076 169.529C159.468 170.094 159.711 170.651 159.805 171.201C159.9 171.751 159.853 172.259 159.664 172.725C159.476 173.191 159.155 173.581 158.702 173.895C158.352 174.138 158.035 174.272 157.751 174.296C157.466 174.324 157.219 174.301 157.009 174.229C156.799 174.16 156.631 174.1 156.506 174.049L156.436 174.097L158.272 176.745L157.445 177.318L152.472 170.146L153.271 169.592L153.844 170.419L153.942 170.351C153.935 170.211 153.935 170.027 153.944 169.8C153.954 169.575 154.022 169.332 154.149 169.072C154.277 168.813 154.514 168.564 154.86 168.325ZM155.263 169.145C154.931 169.375 154.711 169.655 154.602 169.987C154.495 170.32 154.488 170.682 154.583 171.073C154.679 171.466 154.868 171.866 155.15 172.272C155.428 172.674 155.73 172.985 156.056 173.205C156.383 173.427 156.719 173.543 157.064 173.553C157.411 173.565 157.753 173.454 158.089 173.221C158.439 172.978 158.669 172.686 158.778 172.344C158.886 172.006 158.892 171.644 158.797 171.257C158.701 170.875 158.522 170.494 158.259 170.116C157.994 169.733 157.694 169.426 157.361 169.194C157.026 168.966 156.68 168.84 156.321 168.816C155.961 168.795 155.608 168.905 155.263 169.145Z" fill="black"/>
<path d="M146.771 174.075C147.326 173.775 147.87 173.638 148.405 173.665C148.939 173.696 149.434 173.874 149.891 174.199C150.346 174.527 150.733 174.986 151.052 175.576C151.372 176.165 151.545 176.743 151.574 177.309C151.601 177.879 151.49 178.395 151.239 178.857C150.987 179.323 150.601 179.696 150.082 179.977C149.782 180.14 149.459 180.25 149.112 180.308C148.766 180.367 148.412 180.348 148.05 180.253C147.69 180.16 147.339 179.969 146.998 179.679C146.657 179.389 146.341 178.975 146.05 178.438L145.848 178.063L150.285 175.662L150.699 176.426L147.161 178.341C147.337 178.666 147.558 178.92 147.826 179.105C148.092 179.291 148.383 179.393 148.7 179.412C149.015 179.432 149.332 179.356 149.652 179.183C150.004 178.992 150.261 178.74 150.424 178.426C150.586 178.115 150.66 177.784 150.647 177.433C150.635 177.081 150.543 176.747 150.371 176.429L150.095 175.919C149.86 175.485 149.585 175.157 149.272 174.936C148.957 174.718 148.622 174.604 148.267 174.593C147.914 174.584 147.558 174.676 147.201 174.869C146.969 174.995 146.776 175.141 146.624 175.307C146.471 175.478 146.361 175.666 146.295 175.873C146.231 176.082 146.215 176.307 146.248 176.548L145.264 176.77C145.197 176.432 145.211 176.095 145.304 175.76C145.399 175.428 145.569 175.116 145.815 174.825C146.063 174.536 146.381 174.286 146.771 174.075Z" fill="black"/>
<path d="M138.548 184.315L139.289 183.738C139.398 183.856 139.531 183.96 139.687 184.05C139.841 184.144 140.023 184.199 140.232 184.215C140.441 184.231 140.681 184.184 140.952 184.074C141.324 183.923 141.598 183.712 141.776 183.441C141.952 183.173 141.988 182.909 141.882 182.648C141.788 182.416 141.629 182.268 141.406 182.202C141.183 182.136 140.875 182.131 140.48 182.187L139.49 182.332C138.895 182.42 138.409 182.383 138.033 182.22C137.658 182.059 137.384 181.767 137.212 181.343C137.071 180.996 137.045 180.645 137.134 180.29C137.22 179.936 137.409 179.608 137.7 179.305C137.991 179.003 138.372 178.756 138.844 178.565C139.462 178.314 140.029 178.24 140.543 178.344C141.057 178.448 141.473 178.736 141.791 179.208L140.996 179.788C140.779 179.496 140.521 179.316 140.22 179.248C139.917 179.181 139.575 179.225 139.193 179.38C138.759 179.556 138.451 179.788 138.271 180.076C138.089 180.368 138.051 180.644 138.156 180.905C138.242 181.115 138.387 181.262 138.592 181.344C138.799 181.429 139.069 181.445 139.403 181.392L140.51 181.218C141.119 181.124 141.61 181.163 141.982 181.333C142.354 181.507 142.624 181.804 142.794 182.222C142.933 182.564 142.96 182.906 142.875 183.247C142.787 183.59 142.606 183.904 142.333 184.19C142.057 184.476 141.706 184.706 141.28 184.88C140.679 185.123 140.155 185.183 139.706 185.059C139.254 184.936 138.868 184.688 138.548 184.315Z" fill="black"/>
<path d="M132.118 181.894L133.899 188.193L132.931 188.466L131.15 182.168L132.118 181.894ZM133.704 189.382C133.892 189.328 134.073 189.347 134.246 189.436C134.417 189.527 134.527 189.662 134.578 189.843C134.629 190.023 134.606 190.197 134.508 190.363C134.408 190.53 134.264 190.64 134.075 190.694C133.886 190.747 133.707 190.728 133.537 190.638C133.363 190.548 133.251 190.413 133.2 190.232C133.149 190.052 133.174 189.878 133.274 189.711C133.372 189.545 133.515 189.435 133.704 189.382Z" fill="black"/>
<path d="M119.882 182.81C120.361 182.73 120.783 182.723 121.148 182.788C121.513 182.851 121.827 182.963 122.09 183.124C122.35 183.282 122.565 183.462 122.737 183.664L122.04 184.351C121.93 184.248 121.794 184.132 121.632 184.004C121.469 183.873 121.259 183.771 121.002 183.699C120.742 183.624 120.417 183.619 120.027 183.684C119.506 183.771 119.097 183.969 118.8 184.278C118.503 184.586 118.4 185.01 118.489 185.548L118.708 186.859L118.792 186.845C118.846 186.715 118.925 186.552 119.03 186.356C119.134 186.163 119.299 185.979 119.526 185.803C119.75 185.63 120.073 185.508 120.493 185.438C121.014 185.351 121.503 185.396 121.959 185.574C122.412 185.752 122.798 186.056 123.118 186.486C123.434 186.917 123.649 187.469 123.761 188.142C123.871 188.803 123.851 189.398 123.7 189.927C123.55 190.459 123.29 190.895 122.92 191.233C122.551 191.574 122.094 191.79 121.551 191.88C121.13 191.95 120.785 191.936 120.515 191.837C120.243 191.741 120.026 191.616 119.865 191.462C119.702 191.31 119.574 191.185 119.482 191.085L119.382 191.102L119.553 192.127L118.594 192.287L117.486 185.646C117.394 185.091 117.444 184.619 117.639 184.23C117.83 183.838 118.123 183.525 118.519 183.292C118.912 183.057 119.366 182.896 119.882 182.81ZM120.507 186.352C120.109 186.418 119.788 186.565 119.544 186.793C119.3 187.021 119.135 187.318 119.049 187.684C118.963 188.049 118.96 188.47 119.039 188.947C119.117 189.412 119.255 189.811 119.455 190.143C119.654 190.476 119.908 190.72 120.217 190.876C120.525 191.032 120.881 191.076 121.284 191.009C121.705 190.939 122.037 190.774 122.282 190.514C122.524 190.255 122.685 189.934 122.765 189.552C122.842 189.171 122.845 188.761 122.772 188.324C122.697 187.876 122.561 187.491 122.363 187.17C122.163 186.852 121.908 186.618 121.598 186.468C121.286 186.321 120.922 186.282 120.507 186.352Z" fill="black"/>
<path d="M112.645 190.923L112.428 186.991L113.432 186.936L113.792 193.471L112.822 193.525L112.766 192.504L112.681 192.508C112.546 192.849 112.328 193.128 112.027 193.347C111.727 193.568 111.329 193.692 110.836 193.72C110.393 193.744 110.001 193.675 109.659 193.511C109.317 193.351 109.044 193.093 108.84 192.737C108.635 192.384 108.518 191.93 108.487 191.374L108.258 187.221L109.262 187.166L109.487 191.25C109.516 191.764 109.671 192.156 109.954 192.428C110.236 192.703 110.61 192.827 111.075 192.802C111.396 192.784 111.679 192.699 111.923 192.546C112.165 192.393 112.351 192.179 112.481 191.905C112.611 191.63 112.666 191.303 112.645 190.923Z" fill="black"/>
<path d="M102.341 190.264L102.338 190.315C102.303 190.857 102.222 191.285 102.097 191.599C101.971 191.914 101.804 192.165 101.594 192.353C101.385 192.54 101.136 192.71 100.849 192.862C100.676 192.955 100.519 193.067 100.378 193.199C100.237 193.333 100.123 193.491 100.036 193.671C99.9466 193.851 99.8957 194.053 99.8833 194.277C99.868 194.555 99.9199 194.8 100.039 195.011C100.158 195.222 100.324 195.39 100.536 195.512C100.749 195.635 100.988 195.704 101.255 195.718C101.487 195.731 101.714 195.695 101.935 195.611C102.156 195.526 102.344 195.384 102.501 195.185C102.657 194.986 102.755 194.72 102.796 194.386L103.869 194.446C103.819 194.927 103.672 195.332 103.426 195.663C103.177 195.994 102.861 196.239 102.476 196.4C102.089 196.561 101.666 196.629 101.206 196.603C100.707 196.576 100.278 196.453 99.9204 196.234C99.5598 196.015 99.2883 195.726 99.106 195.369C98.9209 195.012 98.8405 194.612 98.8649 194.17C98.8821 193.858 98.9459 193.578 99.0563 193.331C99.1638 193.083 99.3124 192.866 99.5021 192.677C99.6889 192.488 99.9114 192.324 100.169 192.184C100.428 192.042 100.637 191.889 100.797 191.724C100.956 191.562 101.077 191.365 101.158 191.134C101.239 190.902 101.292 190.61 101.317 190.259L101.32 190.208L102.341 190.264ZM101.935 187.715C102.145 187.727 102.321 187.812 102.463 187.971C102.605 188.129 102.671 188.313 102.659 188.523C102.647 188.733 102.562 188.909 102.404 189.051C102.245 189.193 102.061 189.259 101.851 189.247C101.641 189.235 101.465 189.15 101.323 188.992C101.181 188.833 101.116 188.649 101.127 188.439C101.135 188.3 101.177 188.174 101.255 188.062C101.329 187.949 101.427 187.861 101.547 187.796C101.664 187.734 101.794 187.707 101.935 187.715Z" fill="black"/>
<path d="M84.3449 186.549L81.9702 194.947L76.9347 193.524L77.1898 192.621L81.2084 193.758L82.0108 190.92L78.3695 189.891L78.6246 188.988L82.2659 190.018L83.328 186.262L84.3449 186.549Z" fill="black"/>
<path d="M72.6328 183.226C73.1803 183.449 73.6077 183.774 73.9151 184.203C74.2199 184.63 74.393 185.125 74.4343 185.687C74.473 186.249 74.3651 186.843 74.1107 187.469C73.8541 188.101 73.5156 188.606 73.0953 188.984C72.6723 189.361 72.2026 189.597 71.6862 189.69C71.1671 189.783 70.6338 189.718 70.0863 189.496C69.5389 189.274 69.1127 188.949 68.808 188.521C68.5006 188.093 68.3281 187.597 68.2904 187.033C68.2502 186.467 68.3583 185.869 68.6149 185.237C68.8693 184.611 69.2075 184.11 69.6294 183.736C70.0487 183.36 70.5179 183.126 71.037 183.033C71.5534 182.94 72.0854 183.004 72.6328 183.226ZM72.2929 184.063C71.877 183.894 71.4915 183.862 71.1365 183.966C70.7814 184.07 70.4688 184.27 70.1987 184.565C69.9286 184.86 69.7113 185.21 69.5466 185.616C69.382 186.021 69.2931 186.425 69.2799 186.827C69.2667 187.23 69.3505 187.593 69.5313 187.918C69.7121 188.243 70.0104 188.49 70.4263 188.659C70.8422 188.828 71.2282 188.859 71.5843 188.752C71.9404 188.645 72.2541 188.443 72.5252 188.145C72.7964 187.848 73.0143 187.496 73.1789 187.091C73.3436 186.686 73.432 186.283 73.4441 185.883C73.4562 185.483 73.3714 185.122 73.1895 184.8C73.0076 184.478 72.7087 184.232 72.2929 184.063Z" fill="black"/>
<path d="M60.8788 188.293L65.0326 180.617L65.917 181.096L61.7633 188.772L60.8788 188.293Z" fill="black"/>
<path d="M51.4033 183.453L56.3762 176.281L57.2027 176.855L52.2298 184.026L51.4033 183.453Z" fill="black"/>
<path d="M47.0921 169.831C47.5377 170.219 47.8363 170.665 47.988 171.17C48.1375 171.674 48.1404 172.198 47.9968 172.743C47.8511 173.287 47.5562 173.814 47.1122 174.324C46.6644 174.838 46.1803 175.206 45.66 175.427C45.1375 175.646 44.6167 175.716 44.0978 175.637C43.5768 175.556 43.0934 175.322 42.6478 174.934C42.2022 174.546 41.9047 174.1 41.7552 173.597C41.6035 173.092 41.6015 172.567 41.7491 172.021C41.8945 171.473 42.1912 170.942 42.639 170.428C43.083 169.918 43.5653 169.555 44.086 169.338C44.6045 169.118 45.1243 169.049 45.6453 169.13C46.1642 169.209 46.6465 169.443 47.0921 169.831ZM46.4988 170.512C46.1603 170.217 45.8062 170.062 45.4366 170.045C45.0669 170.028 44.7065 170.115 44.3552 170.307C44.004 170.498 43.6847 170.759 43.3973 171.089C43.11 171.418 42.8948 171.772 42.7516 172.148C42.6084 172.524 42.5696 172.895 42.6351 173.261C42.7006 173.627 42.9027 173.958 43.2411 174.253C43.5796 174.547 43.9346 174.702 44.3062 174.717C44.6777 174.731 45.04 174.642 45.3931 174.448C45.7462 174.255 46.0665 173.993 46.3538 173.663C46.6411 173.333 46.8554 172.981 46.9967 172.607C47.138 172.233 47.175 171.864 47.1076 171.5C47.0402 171.136 46.8373 170.807 46.4988 170.512Z" fill="black"/>
<path d="M40.4275 164.544L36.9626 170.445L36.2468 169.667L38.9756 165.232L38.9294 165.182L34.2958 167.548L33.5685 166.758L36.3078 162.359L36.2616 162.309L31.629 164.651L30.9132 163.873L37.0796 160.908L37.7492 161.635L35.0194 166.094L35.0886 166.169L39.7579 163.817L40.4275 164.544Z" fill="black"/>
<path d="M28.4962 151.239L22.8277 154.512L22.3419 153.67L23.2276 153.159L23.185 153.085C22.8142 153.142 22.4691 153.087 22.1498 152.92C21.8281 152.755 21.5607 152.488 21.3476 152.119C21.1317 151.745 21.0369 151.385 21.0632 151.038C21.0856 150.69 21.2076 150.359 21.4293 150.044L21.3952 149.985C21.0186 150.009 20.6604 149.926 20.3206 149.735C19.9783 149.545 19.69 149.248 19.4556 148.842C19.163 148.335 19.0823 147.829 19.2136 147.323C19.3424 146.819 19.7402 146.374 20.407 145.989L24.2008 143.799L24.7036 144.67L20.9098 146.86C20.4916 147.102 20.2587 147.389 20.2112 147.721C20.1637 148.054 20.2294 148.375 20.4084 148.685C20.6385 149.084 20.9373 149.323 21.3049 149.403C21.6699 149.484 22.0358 149.419 22.4024 149.207L26.0928 147.076L26.6042 147.962L22.7218 150.203C22.3995 150.389 22.2003 150.644 22.1242 150.967C22.0457 151.291 22.1016 151.618 22.2919 151.947C22.4226 152.174 22.605 152.351 22.8392 152.478C23.072 152.603 23.3302 152.663 23.6139 152.66C23.8936 152.656 24.1725 152.574 24.4505 152.414L27.9934 150.368L28.4962 151.239Z" fill="black"/>
<path d="M22.316 140.494C22.5693 141.072 22.6604 141.626 22.5891 142.157C22.5142 142.686 22.2961 143.165 21.9349 143.593C21.5699 144.02 21.0805 144.368 20.4665 144.637C19.8525 144.906 19.2623 145.032 18.6958 145.014C18.1257 144.994 17.6208 144.84 17.1811 144.552C16.7377 144.263 16.3973 143.847 16.16 143.306C16.023 142.994 15.9398 142.663 15.9104 142.313C15.8809 141.963 15.9285 141.611 16.0531 141.259C16.1751 140.908 16.3948 140.574 16.7122 140.258C17.0296 139.942 17.4679 139.661 18.0273 139.416L18.4175 139.245L20.4443 143.865L19.6482 144.214L18.0323 140.53C17.694 140.679 17.4219 140.879 17.2159 141.13C17.0087 141.38 16.8826 141.661 16.8375 141.976C16.7913 142.288 16.8412 142.61 16.9873 142.943C17.1482 143.31 17.3785 143.587 17.6781 143.776C17.974 143.962 18.2978 144.064 18.6493 144.08C19.0009 144.097 19.3418 144.032 19.6723 143.887L20.203 143.655C20.6557 143.456 21.0052 143.21 21.2515 142.915C21.4941 142.62 21.6357 142.296 21.6764 141.943C21.7144 141.591 21.6518 141.229 21.4887 140.857C21.3825 140.615 21.2528 140.411 21.0996 140.246C20.9426 140.079 20.7638 139.954 20.5632 139.872C20.3599 139.79 20.1371 139.756 19.8947 139.769L19.7542 138.77C20.0971 138.731 20.4315 138.772 20.7574 138.893C21.0808 139.015 21.3775 139.21 21.6476 139.48C21.9152 139.75 22.1379 140.088 22.316 140.494Z" fill="black"/>
<path d="M15.5145 123.326C15.594 123.733 15.5895 124.117 15.501 124.479C15.4096 124.841 15.2366 125.149 14.982 125.401C14.7246 125.654 14.3868 125.821 13.9685 125.903C13.6005 125.975 13.288 125.961 13.031 125.86C12.7713 125.76 12.5522 125.602 12.3738 125.385C12.1953 125.168 12.0455 124.919 11.9241 124.639C11.7995 124.357 11.6885 124.07 11.5912 123.779C11.4648 123.399 11.3653 123.09 11.2928 122.852C11.217 122.612 11.1362 122.443 11.0503 122.344C10.9638 122.242 10.8411 122.207 10.6822 122.238L10.6487 122.244C10.2361 122.325 9.93747 122.5 9.75295 122.771C9.56789 123.039 9.51974 123.4 9.60852 123.854C9.70056 124.325 9.87589 124.675 10.1345 124.902C10.3931 125.129 10.6501 125.275 10.9056 125.338L10.754 126.34C10.331 126.249 9.98349 126.085 9.71155 125.849C9.43627 125.61 9.22301 125.333 9.07177 125.018C8.91719 124.701 8.80831 124.381 8.74513 124.058C8.70483 123.851 8.68363 123.609 8.68153 123.332C8.6761 123.052 8.72416 122.772 8.82571 122.492C8.92671 122.209 9.11283 121.954 9.38407 121.727C9.6553 121.5 10.046 121.337 10.5563 121.238L14.7888 120.411L14.9816 121.398L14.1117 121.568L14.1215 121.618C14.274 121.658 14.4449 121.74 14.6343 121.865C14.8238 121.99 14.9996 122.172 15.1618 122.409C15.3239 122.647 15.4415 122.952 15.5145 123.326ZM14.5984 123.348C14.5222 122.958 14.3812 122.644 14.1756 122.406C13.9694 122.166 13.7317 122.001 13.4624 121.912C13.1926 121.82 12.9239 121.8 12.6562 121.852L11.7528 122.029C11.8112 122.061 11.8752 122.144 11.9448 122.278C12.011 122.409 12.0775 122.564 12.1441 122.742C12.2074 122.918 12.2671 123.09 12.3231 123.259C12.3759 123.425 12.4196 123.56 12.4542 123.663C12.5378 123.913 12.639 124.142 12.7578 124.35C12.8733 124.557 13.0183 124.714 13.1928 124.821C13.3639 124.927 13.575 124.955 13.8259 124.906C14.1689 124.839 14.4034 124.662 14.5295 124.373C14.6522 124.083 14.6752 123.742 14.5984 123.348Z" fill="black"/>
<path d="M9.46031 115.145L13.3844 114.82L13.4674 115.822L6.94432 116.363L6.86408 115.395L7.88332 115.31L7.87628 115.225C7.53236 115.1 7.24699 114.89 7.02017 114.595C6.79051 114.3 6.65528 113.907 6.61446 113.414C6.57786 112.972 6.63644 112.578 6.79018 112.232C6.9411 111.886 7.19155 111.606 7.54153 111.392C7.88867 111.178 8.3397 111.048 8.89462 111.002L13.0395 110.658L13.1226 111.66L9.04562 111.998C8.53317 112.041 8.14499 112.207 7.88109 112.497C7.61436 112.787 7.50024 113.164 7.53871 113.628C7.56522 113.948 7.65828 114.228 7.81789 114.469C7.97726 114.706 8.196 114.886 8.4741 115.009C8.75219 115.131 9.08093 115.177 9.46031 115.145Z" fill="black"/>
<path d="M12.4564 103.74C12.4414 104.285 12.2904 104.763 12.0034 105.173C11.7136 105.582 11.3127 105.898 10.8007 106.12C10.2859 106.342 9.68205 106.443 8.98913 106.424C8.30189 106.405 7.70878 106.271 7.20978 106.021C6.71079 105.771 6.32935 105.433 6.06548 105.005C5.8016 104.577 5.67725 104.087 5.69244 103.537C5.70418 103.111 5.78445 102.776 5.93325 102.533C6.07929 102.287 6.24357 102.101 6.42608 101.975C6.60583 101.847 6.75352 101.747 6.86915 101.676L6.87149 101.591L3.65113 101.502L3.67884 100.497L12.4028 100.737L12.376 101.709L11.3707 101.681L11.3674 101.8C11.4847 101.877 11.6323 101.987 11.8103 102.128C11.9854 102.269 12.1405 102.468 12.2755 102.725C12.4077 102.981 12.468 103.32 12.4564 103.74ZM11.5571 103.579C11.5683 103.176 11.4726 102.832 11.2701 102.548C11.0648 102.264 10.7767 102.044 10.4058 101.889C10.0321 101.734 9.5982 101.649 9.10407 101.636C8.61562 101.622 8.18627 101.681 7.81602 101.813C7.44292 101.945 7.15031 102.147 6.93817 102.42C6.72319 102.692 6.61006 103.033 6.59879 103.442C6.58705 103.868 6.6866 104.226 6.89744 104.516C7.10552 104.803 7.39361 105.023 7.76171 105.175C8.12705 105.324 8.53975 105.405 8.9998 105.418C9.46553 105.431 9.89063 105.372 10.2751 105.24C10.6568 105.106 10.9637 104.901 11.1958 104.626C11.4251 104.348 11.5456 103.999 11.5571 103.579Z" fill="black"/>
<path d="M13.052 86.7357L4.59176 84.5933L4.83864 83.6183L7.96165 84.4092L7.98257 84.3266C7.89055 84.2271 7.7752 84.0924 7.63653 83.9225C7.49581 83.7491 7.38832 83.5255 7.31404 83.2517C7.23772 82.9745 7.25186 82.6294 7.35647 82.2163C7.49176 81.682 7.74459 81.2449 8.11494 80.9049C8.48529 80.565 8.94451 80.3428 9.49261 80.2384C10.0407 80.1339 10.648 80.1661 11.3144 80.3349C11.9864 80.505 12.5399 80.7668 12.975 81.1202C13.4073 81.473 13.7072 81.8859 13.8746 82.3591C14.0392 82.8316 14.0545 83.3322 13.9206 83.861C13.8174 84.2685 13.6673 84.5778 13.4703 84.7887C13.2705 84.999 13.0671 85.1482 12.8602 85.2365C12.6504 85.324 12.4787 85.389 12.3449 85.4313L12.3156 85.5469L13.2905 85.7938L13.052 86.7357ZM10.1221 84.9739C10.6013 85.0952 11.0418 85.1321 11.4437 85.0844C11.8427 85.036 12.1797 84.903 12.4546 84.6854C12.7268 84.4671 12.9124 84.1624 13.0114 83.7714C13.1146 83.3638 13.0933 82.9965 12.9476 82.6694C12.7997 82.3389 12.5601 82.0585 12.2287 81.828C11.8952 81.5941 11.5027 81.42 11.051 81.3056C10.6049 81.1926 10.1854 81.1596 9.79249 81.2067C9.39754 81.2503 9.06055 81.3832 8.78151 81.6056C8.50041 81.8246 8.30755 82.1406 8.20294 82.5537C8.10252 82.9503 8.11865 83.309 8.25135 83.6298C8.38129 83.9499 8.60783 84.2241 8.93098 84.4525C9.25137 84.6801 9.64841 84.8539 10.1221 84.9739Z" fill="black"/>
<path d="M16.081 74.8567C15.8599 75.4473 15.5388 75.908 15.1176 76.2387C14.6949 76.5658 14.2047 76.7569 13.6471 76.812C13.0879 76.8635 12.4943 76.7717 11.8664 76.5367C11.2385 76.3016 10.728 75.98 10.3347 75.5719C9.93985 75.1601 9.68524 74.6977 9.57093 74.1847C9.45495 73.6681 9.50055 73.1331 9.70775 72.5797C9.82728 72.2604 9.99854 71.965 10.2215 71.6936C10.4445 71.4222 10.7235 71.2036 11.0586 71.0378C11.391 70.871 11.7811 70.7851 12.229 70.7798C12.6769 70.7746 13.1868 70.8791 13.7589 71.0933L14.1579 71.2427L12.3888 75.9678L11.5747 75.663L12.9852 71.8957C12.6393 71.7662 12.3048 71.7198 11.9816 71.7565C11.6595 71.7906 11.3726 71.9046 11.121 72.0986C10.8704 72.2899 10.6813 72.5559 10.5538 72.8964C10.4133 73.2716 10.3849 73.631 10.4686 73.9748C10.5505 74.3149 10.7118 74.6134 10.9523 74.8703C11.1929 75.1272 11.4821 75.3189 11.82 75.4454L12.3627 75.6486C12.8257 75.8219 13.248 75.8891 13.6297 75.85C14.0097 75.8072 14.3373 75.6735 14.6125 75.4489C14.885 75.2234 15.0925 74.9203 15.235 74.5399C15.3276 74.2925 15.3767 74.056 15.3822 73.8306C15.3861 73.6015 15.3449 73.3874 15.2587 73.1883C15.1698 72.9881 15.0339 72.8083 14.8509 72.6488L15.447 71.8345C15.7198 72.0459 15.9309 72.3084 16.0804 72.6222C16.2272 72.935 16.3035 73.2821 16.3093 73.6635C16.3125 74.0439 16.2364 74.4416 16.081 74.8567Z" fill="black"/>
<path d="M21.9954 59.3366L16.5158 55.7566L17.0658 54.9146L22.5454 58.4947L21.9954 59.3366ZM15.8822 54.7318C15.775 54.8959 15.6266 55.0009 15.4371 55.0468C15.2492 55.0903 15.0768 55.0608 14.9198 54.9582C14.7628 54.8557 14.6665 54.7096 14.6309 54.52C14.5968 54.3281 14.6334 54.1501 14.7406 53.986C14.8478 53.8219 14.9954 53.7181 15.1833 53.6746C15.3728 53.6287 15.546 53.657 15.7029 53.7596C15.8599 53.8621 15.9554 54.0094 15.9895 54.2013C16.0252 54.3909 15.9894 54.5677 15.8822 54.7318Z" fill="black"/>
<path d="M24.542 47.7228L27.5815 50.2259L26.9421 51.0022L21.8896 46.8411L22.5073 46.0912L23.2967 46.7413L23.3509 46.6755C23.1918 46.3458 23.1338 45.9962 23.1768 45.6268C23.2175 45.2555 23.395 44.8791 23.7093 44.4975C23.991 44.1554 24.3077 43.9139 24.6594 43.7729C25.0089 43.6301 25.3837 43.6039 25.784 43.6944C26.1821 43.783 26.596 44.0043 27.0259 44.3583L30.2363 47.0023L29.597 47.7786L26.4392 45.1779C26.0422 44.851 25.6481 44.6995 25.2569 44.7232C24.8634 44.7451 24.5186 44.9359 24.2224 45.2955C24.0184 45.5433 23.8897 45.8091 23.8364 46.0927C23.7849 46.3742 23.8162 46.6558 23.9302 46.9374C24.0443 47.219 24.2482 47.4808 24.542 47.7228Z" fill="black"/>
<path d="M37.6513 29.2981L38.1748 29.9707L35.498 32.0541L34.9745 31.3815L37.6513 29.2981ZM34.7915 29.5368L35.5851 28.9191L39.417 33.8422C39.5915 34.0664 39.7549 34.2093 39.9071 34.2708C40.0599 34.3283 40.2027 34.3359 40.3354 34.2938C40.4687 34.2476 40.5937 34.1792 40.7102 34.0885C40.7977 34.0204 40.8659 33.9601 40.915 33.9075C40.9623 33.8527 41.0002 33.8088 41.0286 33.7759L41.7449 34.3632C41.7068 34.4252 41.6474 34.5039 41.5667 34.5991C41.4877 34.6965 41.3743 34.8028 41.2263 34.918C41.0021 35.0925 40.7449 35.2153 40.4546 35.2864C40.1666 35.3558 39.8752 35.3468 39.5804 35.2594C39.2879 35.1703 39.0247 34.9756 38.7909 34.6752L34.7915 29.5368Z" fill="black"/>
<path d="M49.1469 28.6589C48.6435 28.9683 48.1282 29.1201 47.6009 29.114C47.0761 29.1065 46.5747 28.9528 46.097 28.6529C45.6216 28.3516 45.2069 27.9129 44.8528 27.3368C44.4957 26.756 44.2893 26.1842 44.2336 25.6216C44.1803 25.0574 44.2688 24.5395 44.499 24.0679C44.7317 23.5947 45.0998 23.2034 45.6032 22.8939C46.1066 22.5845 46.6207 22.4335 47.1455 22.441C47.6728 22.4471 48.1749 22.602 48.6517 22.9058C49.131 23.2081 49.5492 23.6497 49.9062 24.2305C50.2603 24.8065 50.4632 25.3754 50.5151 25.9371C50.5693 26.4973 50.4801 27.014 50.2474 27.4872C50.0171 27.9589 49.6503 28.3495 49.1469 28.6589ZM48.6738 27.8893C49.0562 27.6542 49.3106 27.3628 49.4369 27.015C49.5633 26.6672 49.5876 26.2972 49.5098 25.9048C49.432 25.5124 49.2786 25.1299 49.0495 24.7572C48.8204 24.3844 48.5476 24.0736 48.2311 23.8246C47.9147 23.5756 47.572 23.4278 47.2031 23.381C46.8343 23.3343 46.4587 23.4285 46.0763 23.6636C45.6939 23.8986 45.4402 24.1912 45.3154 24.5415C45.1905 24.8917 45.1677 25.2642 45.247 25.6589C45.3262 26.0537 45.4804 26.4375 45.7095 26.8102C45.9387 27.1829 46.2107 27.4926 46.5257 27.7391C46.8406 27.9857 47.1818 28.1311 47.5492 28.1754C47.9165 28.2197 48.2914 28.1243 48.6738 27.8893Z" fill="black"/>
<path d="M57.429 20.3285L55.7777 16.8293L56.6872 16.4001L59.4807 22.3195L58.5712 22.7487L58.0983 21.7467L58.0366 21.7758C58.0398 22.1419 57.9446 22.4993 57.7511 22.8482C57.5564 23.1946 57.2356 23.4732 56.7885 23.6842C56.4186 23.8588 56.0515 23.933 55.6874 23.907C55.322 23.8783 54.9796 23.7384 54.6599 23.4871C54.3391 23.2333 54.0599 22.8546 53.8222 22.351L52.0472 18.5897L52.9567 18.1605L54.7026 21.8602C54.9063 22.2918 55.1895 22.5791 55.5523 22.722C55.9176 22.8638 56.2891 22.8455 56.6668 22.6673C56.8929 22.5606 57.0955 22.3943 57.2748 22.1683C57.4566 21.9412 57.5707 21.6705 57.6173 21.3564C57.6664 21.0411 57.6036 20.6985 57.429 20.3285Z" fill="black"/>
<path d="M65.9787 19.265C65.3983 19.4642 64.8515 19.4988 64.3382 19.3686C63.825 19.2384 63.3729 18.9716 62.9821 18.5681C62.5913 18.1646 62.2898 17.6539 62.0776 17.0359C61.8618 16.4071 61.7868 15.8126 61.8528 15.2523C61.9205 14.6884 62.116 14.1993 62.4394 13.7849C62.7644 13.3669 63.2064 13.062 63.7653 12.8701C64.2006 12.7207 64.6206 12.6666 65.0252 12.7079C65.4299 12.7492 65.7935 12.8767 66.1162 13.0903C66.4388 13.304 66.6934 13.595 66.88 13.9635L65.9288 14.29C65.7594 14.0328 65.5124 13.8383 65.1878 13.7064C64.8649 13.5709 64.4939 13.5752 64.0748 13.7191C63.704 13.8464 63.412 14.0547 63.199 14.3441C62.9878 14.6299 62.8642 14.9742 62.8282 15.377C62.7941 15.7762 62.8572 16.2096 63.0177 16.6771C63.1819 17.1554 63.4001 17.546 63.6724 17.8491C63.9473 18.1512 64.2568 18.3528 64.6009 18.4539C64.9477 18.5541 65.3092 18.5397 65.6854 18.4105C65.9326 18.3257 66.1422 18.2057 66.3142 18.0505C66.4862 17.8953 66.6144 17.7131 66.6987 17.504C66.7831 17.2948 66.8161 17.0672 66.7977 16.8212L67.7489 16.4946C67.8206 16.8785 67.8006 17.2533 67.6889 17.6191C67.579 17.9812 67.3802 18.3078 67.0926 18.5987C66.8068 18.8861 66.4355 19.1082 65.9787 19.265Z" fill="black"/>
<path d="M72.5624 12.3987L73.4235 16.2409L72.4421 16.4608L70.5336 7.94477L71.515 7.72485L72.2158 10.8518L72.2989 10.8332C72.3747 10.4698 72.5405 10.1575 72.7964 9.89633C73.0545 9.63179 73.4344 9.4433 73.9362 9.33085C74.3714 9.23331 74.7721 9.23521 75.1384 9.33655C75.504 9.43512 75.817 9.64301 76.0773 9.96024C76.3398 10.2741 76.5325 10.7054 76.6556 11.2543L77.5651 15.3127L76.5837 15.5327L75.6891 11.5408C75.5754 11.0335 75.3558 10.6707 75.0304 10.4525C74.707 10.2309 74.3139 10.172 73.851 10.2758C73.5294 10.3478 73.2563 10.4804 73.0317 10.6733C72.8099 10.8657 72.6547 11.1087 72.5662 11.4022C72.4804 11.695 72.4792 12.0272 72.5624 12.3987Z" fill="black"/>
<path d="M81.5821 11.3535C81.5218 10.8858 81.5563 10.5004 81.6857 10.1974C81.8151 9.89435 82.0011 9.66368 82.2436 9.50536C82.489 9.34671 82.7557 9.25146 83.0438 9.21958C83.3318 9.1877 83.6014 9.22217 83.8527 9.32298C84.1064 9.42066 84.402 9.58659 84.7395 9.82077C84.9685 9.97836 85.1491 10.087 85.2815 10.1467C85.4167 10.206 85.5591 10.2274 85.7087 10.2108C85.9516 10.184 86.1339 10.0752 86.2557 9.88448C86.3772 9.69096 86.4165 9.42651 86.3737 9.09111L87.2886 8.98986C87.3489 9.45765 87.3144 9.84305 87.185 10.146C87.0585 10.4487 86.8725 10.6794 86.6271 10.838C86.3817 10.9967 86.115 11.0919 85.8269 11.1238C85.5389 11.1557 85.2695 11.1226 85.0185 11.0247C84.7673 10.9238 84.4715 10.7565 84.1312 10.5226C83.9051 10.3647 83.7244 10.2561 83.5892 10.1968C83.454 10.1374 83.3116 10.116 83.162 10.1326C82.9332 10.1579 82.753 10.2593 82.6211 10.4368C82.4918 10.6112 82.4504 10.883 82.497 11.2523L81.5821 11.3535Z" fill="black"/>
</svg>
