<svg width="236" height="86" viewBox="0 0 236 86" fill="none" xmlns="http://www.w3.org/2000/svg">
<path d="M20.1 48.45C17.8 48.45 15.8333 47.95 14.2 46.95C12.5667 45.9167 11.3167 44.3833 10.45 42.35C9.61667 40.2833 9.2 37.65 9.2 34.45C9.2 31.2167 9.6 28.5833 10.4 26.55C11.2 24.4833 12.4 22.95 14 21.95C15.6333 20.95 17.6667 20.45 20.1 20.45C22.5667 20.45 24.8 21.0333 26.8 22.2C28.8333 23.3333 30.4333 24.95 31.6 27.05C32.8 29.1167 33.4 31.5833 33.4 34.45C33.4 37.3167 32.8 39.8 31.6 41.9C30.4333 44 28.8333 45.6167 26.8 46.75C24.8 47.8833 22.5667 48.45 20.1 48.45ZM3.05 57.7V20.9H12.1V25.5L12.05 34.45L12.55 43.45V57.7H3.05ZM18.1 40.9C19.1667 40.9 20.1167 40.65 20.95 40.15C21.8167 39.65 22.5 38.9167 23 37.95C23.5333 36.9833 23.8 35.8167 23.8 34.45C23.8 33.0833 23.5333 31.9167 23 30.95C22.5 29.9833 21.8167 29.25 20.95 28.75C20.1167 28.25 19.1667 28 18.1 28C17.0333 28 16.0667 28.25 15.2 28.75C14.3667 29.25 13.6833 29.9833 13.15 30.95C12.65 31.9167 12.4 33.0833 12.4 34.45C12.4 35.8167 12.65 36.9833 13.15 37.95C13.6833 38.9167 14.3667 39.65 15.2 40.15C16.0667 40.65 17.0333 40.9 18.1 40.9ZM35.3156 48V20.9H44.3656V28.8L43.0156 26.55C43.8156 24.5167 45.1156 23 46.9156 22C48.7156 20.9667 50.899 20.45 53.4656 20.45V29C53.0323 28.9333 52.649 28.9 52.3156 28.9C52.0156 28.8667 51.6823 28.85 51.3156 28.85C49.3823 28.85 47.8156 29.3833 46.6156 30.45C45.4156 31.4833 44.8156 33.1833 44.8156 35.55V48H35.3156ZM68.8418 48.45C65.6418 48.45 62.8418 47.85 60.4418 46.65C58.0751 45.4167 56.2251 43.75 54.8918 41.65C53.5918 39.5167 52.9418 37.1 52.9418 34.4C52.9418 31.7 53.5751 29.3 54.8418 27.2C56.1418 25.0667 57.9251 23.4167 60.1918 22.25C62.4585 21.05 65.0085 20.45 67.8418 20.45C70.5085 20.45 72.9418 21 75.1418 22.1C77.3418 23.1667 79.0918 24.75 80.3918 26.85C81.6918 28.95 82.3418 31.5 82.3418 34.5C82.3418 34.8333 82.3251 35.2167 82.2918 35.65C82.2585 36.0833 82.2251 36.4833 82.1918 36.85H60.7418V31.85H77.1418L73.5418 33.25C73.5751 32.0167 73.3418 30.95 72.8418 30.05C72.3751 29.15 71.7085 28.45 70.8418 27.95C70.0085 27.45 69.0251 27.2 67.8918 27.2C66.7585 27.2 65.7585 27.45 64.8918 27.95C64.0585 28.45 63.4085 29.1667 62.9418 30.1C62.4751 31 62.2418 32.0667 62.2418 33.3V34.75C62.2418 36.0833 62.5085 37.2333 63.0418 38.2C63.6085 39.1667 64.4085 39.9167 65.4418 40.45C66.4751 40.95 67.7085 41.2 69.1418 41.2C70.4751 41.2 71.6085 41.0167 72.5418 40.65C73.5085 40.25 74.4585 39.65 75.3918 38.85L80.3918 44.05C79.0918 45.4833 77.4918 46.5833 75.5918 47.35C73.6918 48.0833 71.4418 48.45 68.8418 48.45ZM84.2219 48V20.9H93.2719V28.45L91.4719 26.3C92.4719 24.3667 93.8385 22.9167 95.5719 21.95C97.3052 20.95 99.2385 20.45 101.372 20.45C103.805 20.45 105.939 21.0833 107.772 22.35C109.639 23.5833 110.889 25.5167 111.522 28.15L108.422 27.5C109.389 25.3 110.839 23.5833 112.772 22.35C114.739 21.0833 116.989 20.45 119.522 20.45C121.622 20.45 123.489 20.8833 125.122 21.75C126.789 22.5833 128.089 23.8833 129.022 25.65C129.989 27.4167 130.472 29.7 130.472 32.5V48H120.972V34.05C120.972 32.1167 120.605 30.7167 119.872 29.85C119.139 28.95 118.139 28.5 116.872 28.5C115.972 28.5 115.155 28.7167 114.422 29.15C113.689 29.5833 113.122 30.25 112.722 31.15C112.322 32.0167 112.122 33.15 112.122 34.55V48H102.622V34.05C102.622 32.1167 102.255 30.7167 101.522 29.85C100.822 28.95 99.8219 28.5 98.5219 28.5C97.5885 28.5 96.7552 28.7167 96.0219 29.15C95.3219 29.5833 94.7552 30.25 94.3219 31.15C93.9219 32.0167 93.7219 33.15 93.7219 34.55V48H84.2219ZM133.968 48V20.9H143.468V48H133.968ZM138.718 17.9C136.985 17.9 135.585 17.4167 134.518 16.45C133.451 15.4833 132.918 14.2833 132.918 12.85C132.918 11.4167 133.451 10.2167 134.518 9.25C135.585 8.28333 136.985 7.8 138.718 7.8C140.451 7.8 141.851 8.26667 142.918 9.2C143.985 10.1 144.518 11.2667 144.518 12.7C144.518 14.2 143.985 15.45 142.918 16.45C141.885 17.4167 140.485 17.9 138.718 17.9ZM161.342 48.45C158.142 48.45 155.342 47.85 152.942 46.65C150.575 45.4167 148.725 43.75 147.392 41.65C146.092 39.5167 145.442 37.1 145.442 34.4C145.442 31.7 146.075 29.3 147.342 27.2C148.642 25.0667 150.425 23.4167 152.692 22.25C154.958 21.05 157.508 20.45 160.342 20.45C163.008 20.45 165.442 21 167.642 22.1C169.842 23.1667 171.592 24.75 172.892 26.85C174.192 28.95 174.842 31.5 174.842 34.5C174.842 34.8333 174.825 35.2167 174.792 35.65C174.758 36.0833 174.725 36.4833 174.692 36.85H153.242V31.85H169.642L166.042 33.25C166.075 32.0167 165.842 30.95 165.342 30.05C164.875 29.15 164.208 28.45 163.342 27.95C162.508 27.45 161.525 27.2 160.392 27.2C159.258 27.2 158.258 27.45 157.392 27.95C156.558 28.45 155.908 29.1667 155.442 30.1C154.975 31 154.742 32.0667 154.742 33.3V34.75C154.742 36.0833 155.008 37.2333 155.542 38.2C156.108 39.1667 156.908 39.9167 157.942 40.45C158.975 40.95 160.208 41.2 161.642 41.2C162.975 41.2 164.108 41.0167 165.042 40.65C166.008 40.25 166.958 39.65 167.892 38.85L172.892 44.05C171.592 45.4833 169.992 46.5833 168.092 47.35C166.192 48.0833 163.942 48.45 161.342 48.45ZM176.722 48V20.9H185.772V28.8L184.422 26.55C185.222 24.5167 186.522 23 188.322 22C190.122 20.9667 192.305 20.45 194.872 20.45V29C194.439 28.9333 194.055 28.9 193.722 28.9C193.422 28.8667 193.089 28.85 192.722 28.85C190.789 28.85 189.222 29.3833 188.022 30.45C186.822 31.4833 186.222 33.1833 186.222 35.55V48H176.722Z" fill="black"/>
<path d="M92.9205 60V53.4545H93.892V54.4773H93.9773C94.1136 54.1278 94.3338 53.8565 94.6378 53.6634C94.9418 53.4673 95.3068 53.3693 95.733 53.3693C96.1648 53.3693 96.5241 53.4673 96.8111 53.6634C97.1009 53.8565 97.3267 54.1278 97.4886 54.4773H97.5568C97.7244 54.1392 97.9759 53.8707 98.3111 53.6719C98.6463 53.4702 99.0483 53.3693 99.517 53.3693C100.102 53.3693 100.581 53.5526 100.953 53.919C101.325 54.2827 101.511 54.8494 101.511 55.6193V60H100.506V55.6193C100.506 55.1364 100.374 54.7912 100.109 54.5838C99.8452 54.3764 99.5341 54.2727 99.1761 54.2727C98.7159 54.2727 98.3594 54.4119 98.1065 54.6903C97.8537 54.9659 97.7273 55.3153 97.7273 55.7386V60H96.7045V55.517C96.7045 55.1449 96.5838 54.8452 96.3423 54.6179C96.1009 54.3878 95.7898 54.2727 95.4091 54.2727C95.1477 54.2727 94.9034 54.3423 94.6761 54.4815C94.4517 54.6207 94.2699 54.8139 94.1307 55.0611C93.9943 55.3054 93.9261 55.5881 93.9261 55.9091V60H92.9205ZM106.009 60.1364C105.418 60.1364 104.9 59.9957 104.454 59.7145C104.011 59.4332 103.664 59.0398 103.414 58.5341C103.167 58.0284 103.043 57.4375 103.043 56.7614C103.043 56.0795 103.167 55.4844 103.414 54.9759C103.664 54.4673 104.011 54.0724 104.454 53.7912C104.9 53.5099 105.418 53.3693 106.009 53.3693C106.6 53.3693 107.117 53.5099 107.56 53.7912C108.006 54.0724 108.353 54.4673 108.6 54.9759C108.85 55.4844 108.975 56.0795 108.975 56.7614C108.975 57.4375 108.85 58.0284 108.6 58.5341C108.353 59.0398 108.006 59.4332 107.56 59.7145C107.117 59.9957 106.6 60.1364 106.009 60.1364ZM106.009 59.233C106.458 59.233 106.827 59.1179 107.117 58.8878C107.407 58.6577 107.621 58.3551 107.761 57.9801C107.9 57.6051 107.969 57.1989 107.969 56.7614C107.969 56.3239 107.9 55.9162 107.761 55.5384C107.621 55.1605 107.407 54.8551 107.117 54.6222C106.827 54.3892 106.458 54.2727 106.009 54.2727C105.56 54.2727 105.191 54.3892 104.901 54.6222C104.612 54.8551 104.397 55.1605 104.258 55.5384C104.119 55.9162 104.049 56.3239 104.049 56.7614C104.049 57.1989 104.119 57.6051 104.258 57.9801C104.397 58.3551 104.612 58.6577 104.901 58.8878C105.191 59.1179 105.56 59.233 106.009 59.233ZM112.982 60.1364C112.436 60.1364 111.955 59.9986 111.537 59.723C111.12 59.4446 110.793 59.0526 110.557 58.5469C110.321 58.0384 110.203 57.4375 110.203 56.7443C110.203 56.0568 110.321 55.4602 110.557 54.9545C110.793 54.4489 111.121 54.0582 111.542 53.7827C111.962 53.5071 112.448 53.3693 112.999 53.3693C113.425 53.3693 113.762 53.4403 114.009 53.5824C114.259 53.7216 114.449 53.8807 114.58 54.0597C114.713 54.2358 114.817 54.3807 114.891 54.4943H114.976V51.2727H115.982V60H115.01V58.9943H114.891C114.817 59.1136 114.712 59.2642 114.576 59.446C114.439 59.625 114.245 59.7855 113.992 59.9276C113.739 60.0668 113.402 60.1364 112.982 60.1364ZM113.118 59.233C113.522 59.233 113.863 59.1278 114.141 58.9176C114.419 58.7045 114.631 58.4105 114.776 58.0355C114.921 57.6577 114.993 57.2216 114.993 56.7273C114.993 56.2386 114.922 55.8111 114.78 55.4446C114.638 55.0753 114.428 54.7884 114.15 54.5838C113.871 54.3764 113.527 54.2727 113.118 54.2727C112.692 54.2727 112.337 54.3821 112.053 54.6009C111.772 54.8168 111.56 55.1108 111.418 55.483C111.279 55.8523 111.209 56.267 111.209 56.7273C111.209 57.1932 111.28 57.6165 111.422 57.9972C111.567 58.375 111.78 58.6761 112.061 58.9006C112.346 59.1222 112.698 59.233 113.118 59.233ZM120.708 60.1364C120.077 60.1364 119.533 59.9972 119.076 59.7188C118.621 59.4375 118.27 59.0455 118.023 58.5426C117.779 58.0369 117.657 57.4489 117.657 56.7784C117.657 56.108 117.779 55.517 118.023 55.0057C118.27 54.4915 118.614 54.0909 119.054 53.804C119.498 53.5142 120.015 53.3693 120.605 53.3693C120.946 53.3693 121.283 53.4261 121.615 53.5398C121.948 53.6534 122.25 53.8381 122.523 54.0938C122.796 54.3466 123.013 54.6818 123.175 55.0994C123.337 55.517 123.418 56.0312 123.418 56.642V57.0682H118.373V56.1989H122.395C122.395 55.8295 122.321 55.5 122.174 55.2102C122.029 54.9205 121.821 54.6918 121.551 54.5241C121.284 54.3565 120.969 54.2727 120.605 54.2727C120.205 54.2727 119.858 54.3722 119.566 54.571C119.276 54.767 119.053 55.0227 118.897 55.3381C118.74 55.6534 118.662 55.9915 118.662 56.3523V56.9318C118.662 57.4261 118.748 57.8452 118.918 58.1889C119.091 58.5298 119.331 58.7898 119.638 58.9688C119.945 59.1449 120.301 59.233 120.708 59.233C120.972 59.233 121.211 59.196 121.424 59.1222C121.64 59.0455 121.826 58.9318 121.982 58.7812C122.138 58.6278 122.259 58.4375 122.344 58.2102L123.316 58.483C123.213 58.8125 123.042 59.1023 122.8 59.3523C122.559 59.5994 122.26 59.7926 121.905 59.9318C121.55 60.0682 121.151 60.1364 120.708 60.1364ZM125.953 51.2727V60H124.948V51.2727H125.953ZM131.17 60V53.4545H132.142V54.4773H132.227C132.364 54.1278 132.584 53.8565 132.888 53.6634C133.192 53.4673 133.557 53.3693 133.983 53.3693C134.415 53.3693 134.774 53.4673 135.061 53.6634C135.351 53.8565 135.577 54.1278 135.739 54.4773H135.807C135.974 54.1392 136.226 53.8707 136.561 53.6719C136.896 53.4702 137.298 53.3693 137.767 53.3693C138.352 53.3693 138.831 53.5526 139.203 53.919C139.575 54.2827 139.761 54.8494 139.761 55.6193V60H138.756V55.6193C138.756 55.1364 138.624 54.7912 138.359 54.5838C138.095 54.3764 137.784 54.2727 137.426 54.2727C136.966 54.2727 136.609 54.4119 136.357 54.6903C136.104 54.9659 135.977 55.3153 135.977 55.7386V60H134.955V55.517C134.955 55.1449 134.834 54.8452 134.592 54.6179C134.351 54.3878 134.04 54.2727 133.659 54.2727C133.398 54.2727 133.153 54.3423 132.926 54.4815C132.702 54.6207 132.52 54.8139 132.381 55.0611C132.244 55.3054 132.176 55.5881 132.176 55.9091V60H131.17ZM143.526 60.1534C143.112 60.1534 142.735 60.0753 142.397 59.919C142.059 59.7599 141.79 59.5312 141.592 59.233C141.393 58.9318 141.293 58.5682 141.293 58.142C141.293 57.767 141.367 57.4631 141.515 57.2301C141.663 56.9943 141.86 56.8097 142.107 56.6761C142.354 56.5426 142.627 56.4432 142.925 56.3778C143.227 56.3097 143.529 56.2557 143.833 56.2159C144.231 56.1648 144.553 56.1264 144.8 56.1009C145.05 56.0724 145.232 56.0256 145.346 55.9602C145.462 55.8949 145.521 55.7812 145.521 55.6193V55.5852C145.521 55.1648 145.406 54.8381 145.175 54.6051C144.948 54.3722 144.603 54.2557 144.14 54.2557C143.66 54.2557 143.283 54.3608 143.011 54.571C142.738 54.7812 142.546 55.0057 142.435 55.2443L141.481 54.9034C141.651 54.5057 141.879 54.196 142.163 53.9744C142.45 53.75 142.762 53.5937 143.1 53.5057C143.441 53.4148 143.776 53.3693 144.106 53.3693C144.316 53.3693 144.558 53.3949 144.83 53.446C145.106 53.4943 145.371 53.5952 145.627 53.7486C145.886 53.902 146.1 54.1335 146.271 54.4432C146.441 54.7528 146.526 55.1676 146.526 55.6875V60H145.521V59.1136H145.469C145.401 59.2557 145.288 59.4077 145.129 59.5696C144.969 59.7315 144.758 59.8693 144.494 59.983C144.229 60.0966 143.907 60.1534 143.526 60.1534ZM143.68 59.25C144.077 59.25 144.413 59.1719 144.685 59.0156C144.961 58.8594 145.168 58.6577 145.308 58.4105C145.45 58.1634 145.521 57.9034 145.521 57.6307V56.7102C145.478 56.7614 145.384 56.8082 145.239 56.8509C145.097 56.8906 144.933 56.9261 144.745 56.9574C144.56 56.9858 144.38 57.0114 144.204 57.0341C144.031 57.054 143.89 57.071 143.782 57.0852C143.521 57.1193 143.276 57.1747 143.049 57.2514C142.825 57.3253 142.643 57.4375 142.504 57.5881C142.367 57.7358 142.299 57.9375 142.299 58.1932C142.299 58.5426 142.428 58.8068 142.687 58.9858C142.948 59.1619 143.279 59.25 143.68 59.25ZM149.368 56.0625V60H148.362V53.4545H149.333V54.4773H149.419C149.572 54.1449 149.805 53.8778 150.118 53.6761C150.43 53.4716 150.833 53.3693 151.328 53.3693C151.771 53.3693 152.159 53.4602 152.491 53.642C152.824 53.821 153.082 54.0938 153.267 54.4602C153.451 54.8239 153.544 55.2841 153.544 55.8409V60H152.538V55.9091C152.538 55.3949 152.404 54.9943 152.137 54.7074C151.87 54.4176 151.504 54.2727 151.038 54.2727C150.717 54.2727 150.43 54.3423 150.177 54.4815C149.927 54.6207 149.73 54.8239 149.585 55.0909C149.44 55.358 149.368 55.6818 149.368 56.0625ZM157.308 60.1534C156.893 60.1534 156.516 60.0753 156.178 59.919C155.84 59.7599 155.572 59.5312 155.373 59.233C155.174 58.9318 155.075 58.5682 155.075 58.142C155.075 57.767 155.148 57.4631 155.296 57.2301C155.444 56.9943 155.641 56.8097 155.888 56.6761C156.136 56.5426 156.408 56.4432 156.707 56.3778C157.008 56.3097 157.31 56.2557 157.614 56.2159C158.012 56.1648 158.335 56.1264 158.582 56.1009C158.832 56.0724 159.013 56.0256 159.127 55.9602C159.244 55.8949 159.302 55.7812 159.302 55.6193V55.5852C159.302 55.1648 159.187 54.8381 158.957 54.6051C158.729 54.3722 158.384 54.2557 157.921 54.2557C157.441 54.2557 157.065 54.3608 156.792 54.571C156.519 54.7812 156.327 55.0057 156.217 55.2443L155.262 54.9034C155.433 54.5057 155.66 54.196 155.944 53.9744C156.231 53.75 156.543 53.5937 156.881 53.5057C157.222 53.4148 157.558 53.3693 157.887 53.3693C158.097 53.3693 158.339 53.3949 158.612 53.446C158.887 53.4943 159.153 53.5952 159.408 53.7486C159.667 53.902 159.881 54.1335 160.052 54.4432C160.222 54.7528 160.308 55.1676 160.308 55.6875V60H159.302V59.1136H159.251C159.183 59.2557 159.069 59.4077 158.91 59.5696C158.751 59.7315 158.539 59.8693 158.275 59.983C158.011 60.0966 157.688 60.1534 157.308 60.1534ZM157.461 59.25C157.859 59.25 158.194 59.1719 158.467 59.0156C158.742 58.8594 158.95 58.6577 159.089 58.4105C159.231 58.1634 159.302 57.9034 159.302 57.6307V56.7102C159.259 56.7614 159.165 56.8082 159.021 56.8509C158.879 56.8906 158.714 56.9261 158.526 56.9574C158.342 56.9858 158.161 57.0114 157.985 57.0341C157.812 57.054 157.671 57.071 157.563 57.0852C157.302 57.1193 157.058 57.1747 156.83 57.2514C156.606 57.3253 156.424 57.4375 156.285 57.5881C156.148 57.7358 156.08 57.9375 156.08 58.1932C156.08 58.5426 156.21 58.8068 156.468 58.9858C156.729 59.1619 157.06 59.25 157.461 59.25ZM164.785 62.5909C164.299 62.5909 163.882 62.5284 163.532 62.4034C163.183 62.2812 162.892 62.1193 162.659 61.9176C162.429 61.7188 162.245 61.5057 162.109 61.2784L162.91 60.7159C163.001 60.8352 163.116 60.9716 163.255 61.125C163.395 61.2812 163.585 61.4162 163.826 61.5298C164.071 61.6463 164.39 61.7045 164.785 61.7045C165.314 61.7045 165.75 61.5767 166.093 61.321C166.437 61.0653 166.609 60.6648 166.609 60.1193V58.7898H166.524C166.45 58.9091 166.345 59.0568 166.208 59.233C166.075 59.4062 165.882 59.5611 165.629 59.6974C165.379 59.831 165.041 59.8977 164.615 59.8977C164.086 59.8977 163.612 59.7727 163.191 59.5227C162.774 59.2727 162.443 58.9091 162.199 58.4318C161.957 57.9545 161.836 57.375 161.836 56.6932C161.836 56.0227 161.954 55.4389 162.19 54.9418C162.426 54.4418 162.754 54.0554 163.174 53.7827C163.595 53.5071 164.081 53.3693 164.632 53.3693C165.058 53.3693 165.396 53.4403 165.646 53.5824C165.899 53.7216 166.092 53.8807 166.225 54.0597C166.362 54.2358 166.467 54.3807 166.541 54.4943H166.643V53.4545H167.615V60.1875C167.615 60.75 167.487 61.2074 167.231 61.5597C166.978 61.9148 166.637 62.1747 166.208 62.3395C165.782 62.5071 165.308 62.5909 164.785 62.5909ZM164.751 58.9943C165.154 58.9943 165.495 58.902 165.774 58.7173C166.052 58.5327 166.264 58.267 166.409 57.9205C166.554 57.5739 166.626 57.1591 166.626 56.6761C166.626 56.2045 166.555 55.7884 166.413 55.4276C166.271 55.0668 166.061 54.7841 165.782 54.5795C165.504 54.375 165.16 54.2727 164.751 54.2727C164.325 54.2727 163.97 54.3807 163.686 54.5966C163.404 54.8125 163.193 55.1023 163.051 55.4659C162.912 55.8295 162.842 56.233 162.842 56.6761C162.842 57.1307 162.913 57.5327 163.055 57.8821C163.2 58.2287 163.413 58.5014 163.694 58.7003C163.978 58.8963 164.331 58.9943 164.751 58.9943ZM172.2 60.1364C171.569 60.1364 171.025 59.9972 170.568 59.7188C170.113 59.4375 169.762 59.0455 169.515 58.5426C169.271 58.0369 169.149 57.4489 169.149 56.7784C169.149 56.108 169.271 55.517 169.515 55.0057C169.762 54.4915 170.106 54.0909 170.547 53.804C170.99 53.5142 171.507 53.3693 172.098 53.3693C172.439 53.3693 172.775 53.4261 173.108 53.5398C173.44 53.6534 173.743 53.8381 174.015 54.0938C174.288 54.3466 174.505 54.6818 174.667 55.0994C174.829 55.517 174.91 56.0312 174.91 56.642V57.0682H169.865V56.1989H173.887C173.887 55.8295 173.814 55.5 173.666 55.2102C173.521 54.9205 173.314 54.6918 173.044 54.5241C172.777 54.3565 172.461 54.2727 172.098 54.2727C171.697 54.2727 171.35 54.3722 171.058 54.571C170.768 54.767 170.545 55.0227 170.389 55.3381C170.233 55.6534 170.154 55.9915 170.154 56.3523V56.9318C170.154 57.4261 170.24 57.8452 170.41 58.1889C170.583 58.5298 170.824 58.7898 171.13 58.9688C171.437 59.1449 171.794 59.233 172.2 59.233C172.464 59.233 172.703 59.196 172.916 59.1222C173.132 59.0455 173.318 58.9318 173.474 58.7812C173.63 58.6278 173.751 58.4375 173.836 58.2102L174.808 58.483C174.706 58.8125 174.534 59.1023 174.292 59.3523C174.051 59.5994 173.752 59.7926 173.397 59.9318C173.042 60.0682 172.643 60.1364 172.2 60.1364ZM176.44 60V53.4545H177.412V54.4773H177.497C177.633 54.1278 177.853 53.8565 178.157 53.6634C178.461 53.4673 178.826 53.3693 179.252 53.3693C179.684 53.3693 180.044 53.4673 180.331 53.6634C180.62 53.8565 180.846 54.1278 181.008 54.4773H181.076C181.244 54.1392 181.495 53.8707 181.831 53.6719C182.166 53.4702 182.568 53.3693 183.037 53.3693C183.622 53.3693 184.1 53.5526 184.473 53.919C184.845 54.2827 185.031 54.8494 185.031 55.6193V60H184.025V55.6193C184.025 55.1364 183.893 54.7912 183.629 54.5838C183.365 54.3764 183.054 54.2727 182.696 54.2727C182.235 54.2727 181.879 54.4119 181.626 54.6903C181.373 54.9659 181.247 55.3153 181.247 55.7386V60H180.224V55.517C180.224 55.1449 180.103 54.8452 179.862 54.6179C179.62 54.3878 179.309 54.2727 178.929 54.2727C178.667 54.2727 178.423 54.3423 178.196 54.4815C177.971 54.6207 177.789 54.8139 177.65 55.0611C177.514 55.3054 177.446 55.5881 177.446 55.9091V60H176.44ZM189.614 60.1364C188.983 60.1364 188.439 59.9972 187.982 59.7188C187.527 59.4375 187.176 59.0455 186.929 58.5426C186.685 58.0369 186.563 57.4489 186.563 56.7784C186.563 56.108 186.685 55.517 186.929 55.0057C187.176 54.4915 187.52 54.0909 187.961 53.804C188.404 53.5142 188.921 53.3693 189.512 53.3693C189.853 53.3693 190.189 53.4261 190.522 53.5398C190.854 53.6534 191.157 53.8381 191.429 54.0938C191.702 54.3466 191.919 54.6818 192.081 55.0994C192.243 55.517 192.324 56.0312 192.324 56.642V57.0682H187.279V56.1989H191.301C191.301 55.8295 191.228 55.5 191.08 55.2102C190.935 54.9205 190.728 54.6918 190.458 54.5241C190.191 54.3565 189.875 54.2727 189.512 54.2727C189.111 54.2727 188.765 54.3722 188.472 54.571C188.182 54.767 187.959 55.0227 187.803 55.3381C187.647 55.6534 187.569 55.9915 187.569 56.3523V56.9318C187.569 57.4261 187.654 57.8452 187.824 58.1889C187.998 58.5298 188.238 58.7898 188.544 58.9688C188.851 59.1449 189.208 59.233 189.614 59.233C189.878 59.233 190.117 59.196 190.33 59.1222C190.546 59.0455 190.732 58.9318 190.888 58.7812C191.044 58.6278 191.165 58.4375 191.25 58.2102L192.222 58.483C192.12 58.8125 191.948 59.1023 191.706 59.3523C191.465 59.5994 191.167 59.7926 190.811 59.9318C190.456 60.0682 190.057 60.1364 189.614 60.1364ZM194.86 56.0625V60H193.854V53.4545H194.826V54.4773H194.911C195.064 54.1449 195.297 53.8778 195.61 53.6761C195.922 53.4716 196.326 53.3693 196.82 53.3693C197.263 53.3693 197.651 53.4602 197.983 53.642C198.316 53.821 198.574 54.0938 198.759 54.4602C198.944 54.8239 199.036 55.2841 199.036 55.8409V60H198.03V55.9091C198.03 55.3949 197.897 54.9943 197.63 54.7074C197.363 54.4176 196.996 54.2727 196.53 54.2727C196.209 54.2727 195.922 54.3423 195.669 54.4815C195.419 54.6207 195.222 54.8239 195.077 55.0909C194.932 55.358 194.86 55.6818 194.86 56.0625ZM203.72 53.4545V54.3068H200.328V53.4545H203.72ZM201.317 51.8864H202.322V58.125C202.322 58.4091 202.364 58.6222 202.446 58.7642C202.531 58.9034 202.639 58.9972 202.77 59.0455C202.903 59.0909 203.044 59.1136 203.192 59.1136C203.303 59.1136 203.393 59.108 203.464 59.0966C203.536 59.0824 203.592 59.071 203.635 59.0625L203.839 59.9659C203.771 59.9915 203.676 60.017 203.554 60.0426C203.432 60.071 203.277 60.0852 203.089 60.0852C202.805 60.0852 202.527 60.0241 202.254 59.902C201.984 59.7798 201.76 59.5938 201.581 59.3438C201.405 59.0938 201.317 58.7784 201.317 58.3977V51.8864Z" fill="black"/>
<path d="M211.5 17.8158C211.5 20.737 209.052 23.1316 206 23.1316C202.948 23.1316 200.5 20.737 200.5 17.8158C200.5 14.8945 202.948 12.5 206 12.5C209.052 12.5 211.5 14.8945 211.5 17.8158Z" fill="white" stroke="black"/>
<path d="M205.586 20.0909C205.177 20.0909 204.825 19.9943 204.53 19.8011C204.234 19.608 204.007 19.3419 203.848 19.0028C203.689 18.6638 203.609 18.2765 203.609 17.8409C203.609 17.3977 203.691 17.0066 203.853 16.6676C204.018 16.3267 204.247 16.0606 204.541 15.8693C204.836 15.6761 205.181 15.5795 205.575 15.5795C205.882 15.5795 206.158 15.6364 206.405 15.75C206.651 15.8636 206.852 16.0227 207.01 16.2273C207.167 16.4318 207.264 16.6705 207.302 16.9432H206.632C206.581 16.7443 206.467 16.5682 206.291 16.4148C206.117 16.2595 205.882 16.1818 205.586 16.1818C205.325 16.1818 205.096 16.25 204.899 16.3864C204.704 16.5208 204.551 16.7112 204.441 16.9574C204.334 17.2017 204.28 17.4886 204.28 17.8182C204.28 18.1553 204.333 18.4489 204.439 18.6989C204.547 18.9489 204.698 19.143 204.893 19.2812C205.09 19.4195 205.321 19.4886 205.586 19.4886C205.761 19.4886 205.919 19.4583 206.061 19.3977C206.203 19.3371 206.323 19.25 206.422 19.1364C206.52 19.0227 206.59 18.8864 206.632 18.7273H207.302C207.264 18.9848 207.171 19.2169 207.021 19.4233C206.873 19.6278 206.677 19.7907 206.433 19.9119C206.191 20.0312 205.908 20.0909 205.586 20.0909Z" fill="black"/>
</svg>
